<svg xmlns="http://www.w3.org/2000/svg" viewBox="0 0 900 420" role="img" aria-label="Programme launch operations flow: planning, platform readiness, communications, learner tracking and support, feeding an early-risk reporting view">
  <defs>
    <filter id="ds" x="-20%" y="-20%" width="140%" height="140%"><feDropShadow dx="0" dy="2" stdDeviation="3" flood-color="#1B3A6B" flood-opacity="0.14"/></filter>
    <marker id="arw" markerWidth="9" markerHeight="9" refX="7" refY="4.5" orient="auto"><path d="M0 0 L9 4.5 L0 9 z" fill="#3D6491"/></marker>
    <pattern id="grid" width="26" height="26" patternUnits="userSpaceOnUse"><circle cx="1.2" cy="1.2" r="1.2" fill="#1B3A6B" opacity="0.05"/></pattern>
    <style>.dash{stroke-dasharray:1 10;animation:flow .9s linear infinite}@keyframes flow{to{stroke-dashoffset:-11}}.pulse{animation:pulse 2s ease-in-out infinite}@keyframes pulse{0%,100%{opacity:1}50%{opacity:.35}}@media (prefers-reduced-motion:reduce){.dash{animation:none;stroke-dasharray:none}.pulse{animation:none}}</style>
  </defs>
  <rect width="900" height="420" rx="18" fill="#FAFAF8"/>
  <rect width="900" height="420" rx="18" fill="url(#grid)"/>
  <rect x="1" y="1" width="898" height="418" rx="17" fill="none" stroke="#D9DEE6"/>
  <rect x="1" y="1" width="898" height="52" rx="17" fill="#1B3A6B"/>
  <rect x="1" y="30" width="898" height="23" fill="#1B3A6B"/>
  <circle class="pulse" cx="30" cy="27" r="5" fill="#F59E0B"/>
  <text x="48" y="32" font-family="Inter,sans-serif" font-size="14" font-weight="700" fill="#FAFAF8">Programme launch operations</text>
  <text x="878" y="32" text-anchor="end" font-family="Inter,sans-serif" font-size="10.5" font-weight="700" letter-spacing="2" fill="#F59E0B">LAUNCH FLOW</text>
<path d="M164 133 L180 133" fill="none" stroke="#3D6491" stroke-width="2" marker-end="url(#arw)"/><path class="dash" d="M164 133 L180 133" fill="none" stroke="#3D6491" stroke-width="2.2" stroke-linecap="round" opacity="0.9"/><path d="M308 133 L324 133" fill="none" stroke="#3D6491" stroke-width="2" marker-end="url(#arw)"/><path class="dash" d="M308 133 L324 133" fill="none" stroke="#3D6491" stroke-width="2.2" stroke-linecap="round" opacity="0.9"/><path d="M452 133 L468 133" fill="none" stroke="#3D6491" stroke-width="2" marker-end="url(#arw)"/><path class="dash" d="M452 133 L468 133" fill="none" stroke="#3D6491" stroke-width="2.2" stroke-linecap="round" opacity="0.9"/><path d="M596 133 L612 133" fill="none" stroke="#3D6491" stroke-width="2" marker-end="url(#arw)"/><path class="dash" d="M596 133 L612 133" fill="none" stroke="#3D6491" stroke-width="2.2" stroke-linecap="round" opacity="0.9"/><path d="M740 133 L756 133" fill="none" stroke="#3D6491" stroke-width="2" marker-end="url(#arw)"/><path class="dash" d="M740 133 L756 133" fill="none" stroke="#3D6491" stroke-width="2.2" stroke-linecap="round" opacity="0.9"/><rect x="24" y="100" width="140" height="66" rx="33" fill="#1B3A6B" stroke="#D9DEE6" stroke-width="1.5" filter="url(#ds)"/><text x="94" y="129.5" text-anchor="middle" font-family="Inter,system-ui,sans-serif" font-size="12.5" font-weight="600" fill="#FAFAF8">3,174 learners</text><text x="94" y="145.0" text-anchor="middle" font-family="Inter,system-ui,sans-serif" font-size="12.5" font-weight="600" fill="#FAFAF8">launch cohort</text><rect x="180" y="100" width="128" height="66" rx="14" fill="#ffffff" stroke="#D9DEE6" stroke-width="1.5" filter="url(#ds)"/><rect x="180" y="100" width="4.5" height="66" rx="2" fill="#3D6491"/><text x="244" y="129.2" text-anchor="middle" font-family="Inter,system-ui,sans-serif" font-size="11.5" font-weight="600" fill="#1F2937">Launch</text><text x="244" y="144.7" text-anchor="middle" font-family="Inter,system-ui,sans-serif" font-size="11.5" font-weight="600" fill="#1F2937">planning</text><rect x="324" y="100" width="128" height="66" rx="14" fill="#ffffff" stroke="#D9DEE6" stroke-width="1.5" filter="url(#ds)"/><rect x="324" y="100" width="4.5" height="66" rx="2" fill="#3D6491"/><text x="388" y="129.2" text-anchor="middle" font-family="Inter,system-ui,sans-serif" font-size="11.5" font-weight="600" fill="#1F2937">Platform</text><text x="388" y="144.7" text-anchor="middle" font-family="Inter,system-ui,sans-serif" font-size="11.5" font-weight="600" fill="#1F2937">readiness</text><rect x="468" y="100" width="128" height="66" rx="14" fill="#ffffff" stroke="#D9DEE6" stroke-width="1.5" filter="url(#ds)"/><rect x="468" y="100" width="4.5" height="66" rx="2" fill="#3D6491"/><text x="532" y="129.2" text-anchor="middle" font-family="Inter,system-ui,sans-serif" font-size="11.5" font-weight="600" fill="#1F2937">Learner</text><text x="532" y="144.7" text-anchor="middle" font-family="Inter,system-ui,sans-serif" font-size="11.5" font-weight="600" fill="#1F2937">communications</text><rect x="612" y="100" width="128" height="66" rx="14" fill="#ffffff" stroke="#D9DEE6" stroke-width="1.5" filter="url(#ds)"/><rect x="612" y="100" width="4.5" height="66" rx="2" fill="#3D6491"/><text x="676" y="129.2" text-anchor="middle" font-family="Inter,system-ui,sans-serif" font-size="11.5" font-weight="600" fill="#1F2937">Activity</text><text x="676" y="144.7" text-anchor="middle" font-family="Inter,system-ui,sans-serif" font-size="11.5" font-weight="600" fill="#1F2937">tracking</text><rect x="756" y="100" width="128" height="66" rx="14" fill="#ffffff" stroke="#D9DEE6" stroke-width="1.5" filter="url(#ds)"/><rect x="756" y="100" width="4.5" height="66" rx="2" fill="#3D6491"/><text x="820" y="129.2" text-anchor="middle" font-family="Inter,system-ui,sans-serif" font-size="11.5" font-weight="600" fill="#1F2937">Learner</text><text x="820" y="144.7" text-anchor="middle" font-family="Inter,system-ui,sans-serif" font-size="11.5" font-weight="600" fill="#1F2937">support</text><path d="M676 166 L640 268" fill="none" stroke="#3D6491" stroke-width="2" marker-end="url(#arw)"/><path class="dash" d="M676 166 L640 268" fill="none" stroke="#3D6491" stroke-width="2.2" stroke-linecap="round" opacity="0.9"/><path d="M820 166 L720 268" fill="none" stroke="#3D6491" stroke-width="2" marker-end="url(#arw)"/><path class="dash" d="M820 166 L720 268" fill="none" stroke="#3D6491" stroke-width="2.2" stroke-linecap="round" opacity="0.9"/><rect x="520" y="268" width="296" height="74" rx="14" fill="#EEF3FB" stroke="#3D6491" stroke-width="1.5" filter="url(#ds)"/><text x="668" y="301.5" text-anchor="middle" font-family="Inter,system-ui,sans-serif" font-size="12.5" font-weight="600" fill="#1B3A6B">Reporting &amp; early-risk view</text><text x="668" y="317.0" text-anchor="middle" font-family="Inter,system-ui,sans-serif" font-size="12.5" font-weight="600" fill="#1B3A6B">onboarding feedback + activity data</text>
</svg>