<svg xmlns="http://www.w3.org/2000/svg" viewBox="0 0 1200 760" role="img" aria-label="Operational Analytics Layer">
  <rect width="1200" height="760" fill="#FAFAF8"/>
  <rect x="24" y="24" width="1152" height="712" rx="20" fill="none" stroke="#E5E7EB" stroke-width="2"/>
  <text x="60" y="90" font-family="Georgia, serif" font-size="40" fill="#1B3A6B">Operational Analytics Layer</text>
  <line x1="60" y1="112" x2="200" y2="112" stroke="#D97706" stroke-width="4" stroke-linecap="round"/>
  <g><path d="M270 220 C320 220 320 350 360 350" fill="none" stroke="#3D6491" stroke-width="2.5" stroke-linecap="round"/><path d="M270 360 H360" fill="none" stroke="#3D6491" stroke-width="2.5" stroke-linecap="round"/><path d="M270 500 C320 500 320 370 360 370" fill="none" stroke="#3D6491" stroke-width="2.5" stroke-linecap="round"/><path d="M560 350 C600 350 600 265 650 265" fill="none" stroke="#3D6491" stroke-width="2.5" stroke-linecap="round"/><path d="M560 360 C600 360 600 465 650 465" fill="none" stroke="#3D6491" stroke-width="2.5" stroke-linecap="round"/><path d="M880 265 C920 265 920 355 940 355" fill="none" stroke="#3D6491" stroke-width="2.5" stroke-linecap="round"/><path d="M880 465 C920 465 920 375 940 375" fill="none" stroke="#3D6491" stroke-width="2.5" stroke-linecap="round"/><rect x="70" y="180" width="200" height="80" rx="14" fill="#FAFAF8" stroke="#1B3A6B" stroke-width="2.5"/><text x="170.0" y="227.0" text-anchor="middle" font-family="Inter, system-ui, sans-serif" font-size="25" fill="#111827">Tickets</text><rect x="70" y="320" width="200" height="80" rx="14" fill="#FAFAF8" stroke="#1B3A6B" stroke-width="2.5"/><text x="170.0" y="367.0" text-anchor="middle" font-family="Inter, system-ui, sans-serif" font-size="25" fill="#111827">Sales</text><rect x="70" y="460" width="200" height="80" rx="14" fill="#FAFAF8" stroke="#1B3A6B" stroke-width="2.5"/><text x="170.0" y="507.0" text-anchor="middle" font-family="Inter, system-ui, sans-serif" font-size="25" fill="#111827">Surveys</text><rect x="360" y="320" width="200" height="90" rx="14" fill="#FAFAF8" stroke="#D97706" stroke-width="2.5"/><text x="460.0" y="372.0" text-anchor="middle" font-family="Inter, system-ui, sans-serif" font-size="25" fill="#111827">SQL</text><rect x="650" y="220" width="230" height="90" rx="14" fill="#FAFAF8" stroke="#1B3A6B" stroke-width="2.5"/><text x="765.0" y="272.0" text-anchor="middle" font-family="Inter, system-ui, sans-serif" font-size="25" fill="#111827">Power BI</text><rect x="650" y="420" width="230" height="90" rx="14" fill="#FAFAF8" stroke="#1B3A6B" stroke-width="2.5"/><text x="765.0" y="472.0" text-anchor="middle" font-family="Inter, system-ui, sans-serif" font-size="25" fill="#111827">Excel</text><rect x="940" y="320" width="200" height="90" rx="14" fill="#FAFAF8" stroke="#D97706" stroke-width="2.5"/><text x="1040.0" y="372.0" text-anchor="middle" font-family="Inter, system-ui, sans-serif" font-size="25" fill="#111827">Leadership</text></g>
</svg>