<svg xmlns="http://www.w3.org/2000/svg" viewBox="0 0 1200 760" role="img" aria-label="Programme Delivery Operations">
  <rect width="1200" height="760" fill="#FAFAF8"/>
  <rect x="24" y="24" width="1152" height="712" rx="20" fill="none" stroke="#E5E7EB" stroke-width="2"/>
  <text x="60" y="90" font-family="Georgia, serif" font-size="40" fill="#1B3A6B">Programme Delivery Operations</text>
  <line x1="60" y1="112" x2="200" y2="112" stroke="#D97706" stroke-width="4" stroke-linecap="round"/>
  <g><path d="M270 190 C320 190 320 320 360 320" fill="none" stroke="#3D6491" stroke-width="2.5" stroke-linecap="round"/><path d="M270 330 H360" fill="none" stroke="#3D6491" stroke-width="2.5" stroke-linecap="round"/><path d="M270 470 C320 470 320 350 360 350" fill="none" stroke="#3D6491" stroke-width="2.5" stroke-linecap="round"/><path d="M600 320 C640 320 640 225 680 225" fill="none" stroke="#3D6491" stroke-width="2.5" stroke-linecap="round"/><path d="M600 350 C640 350 640 445 680 445" fill="none" stroke="#3D6491" stroke-width="2.5" stroke-linecap="round"/><path d="M920 225 C960 225 960 320 980 320" fill="none" stroke="#3D6491" stroke-width="2.5" stroke-linecap="round"/><path d="M920 445 C960 445 960 350 980 350" fill="none" stroke="#3D6491" stroke-width="2.5" stroke-linecap="round"/><rect x="70" y="150" width="200" height="80" rx="14" fill="#FAFAF8" stroke="#1B3A6B" stroke-width="2.5"/><text x="170.0" y="197.0" text-anchor="middle" font-family="Inter, system-ui, sans-serif" font-size="25" fill="#111827">Phase 1</text><rect x="70" y="290" width="200" height="80" rx="14" fill="#FAFAF8" stroke="#1B3A6B" stroke-width="2.5"/><text x="170.0" y="337.0" text-anchor="middle" font-family="Inter, system-ui, sans-serif" font-size="25" fill="#111827">Phase 2</text><rect x="70" y="430" width="200" height="80" rx="14" fill="#FAFAF8" stroke="#1B3A6B" stroke-width="2.5"/><text x="170.0" y="477.0" text-anchor="middle" font-family="Inter, system-ui, sans-serif" font-size="25" fill="#111827">Phase 3</text><rect x="360" y="290" width="240" height="90" rx="14" fill="#FAFAF8" stroke="#D97706" stroke-width="2.5"/><text x="480.0" y="342.0" text-anchor="middle" font-family="Inter, system-ui, sans-serif" font-size="25" fill="#111827">Dependencies</text><rect x="680" y="180" width="240" height="90" rx="14" fill="#FAFAF8" stroke="#1B3A6B" stroke-width="2.5"/><text x="800.0" y="232.0" text-anchor="middle" font-family="Inter, system-ui, sans-serif" font-size="25" fill="#111827">Facilitator OK</text><rect x="680" y="400" width="240" height="90" rx="14" fill="#FAFAF8" stroke="#D97706" stroke-width="2.5"/><text x="800.0" y="452.0" text-anchor="middle" font-family="Inter, system-ui, sans-serif" font-size="25" fill="#111827">Escalation</text><rect x="980" y="290" width="160" height="90" rx="14" fill="#FAFAF8" stroke="#1B3A6B" stroke-width="2.5"/><text x="1060.0" y="342.0" text-anchor="middle" font-family="Inter, system-ui, sans-serif" font-size="25" fill="#111827">Leadership</text></g>
</svg>