<svg xmlns="http://www.w3.org/2000/svg" viewBox="0 0 1200 760" role="img" aria-label="Learner Health Tracker">
  <rect width="1200" height="760" fill="#FAFAF8"/>
  <rect x="24" y="24" width="1152" height="712" rx="20" fill="none" stroke="#E5E7EB" stroke-width="2"/>
  <text x="60" y="90" font-family="Georgia, serif" font-size="40" fill="#1B3A6B">Learner Health Tracker</text>
  <line x1="60" y1="112" x2="200" y2="112" stroke="#D97706" stroke-width="4" stroke-linecap="round"/>
  <g><path d="M280 190 C330 190 330 320 370 320" fill="none" stroke="#3D6491" stroke-width="2.5" stroke-linecap="round"/><path d="M280 330 H370" fill="none" stroke="#3D6491" stroke-width="2.5" stroke-linecap="round"/><path d="M280 470 C330 470 330 350 370 350" fill="none" stroke="#3D6491" stroke-width="2.5" stroke-linecap="round"/><path d="M630 335 H720" fill="none" stroke="#3D6491" stroke-width="2.5" stroke-linecap="round"/><rect x="70" y="150" width="210" height="80" rx="14" fill="#FAFAF8" stroke="#1B3A6B" stroke-width="2.5"/><text x="175.0" y="197.0" text-anchor="middle" font-family="Inter, system-ui, sans-serif" font-size="25" fill="#111827">Cohort A</text><rect x="70" y="290" width="210" height="80" rx="14" fill="#FAFAF8" stroke="#1B3A6B" stroke-width="2.5"/><text x="175.0" y="337.0" text-anchor="middle" font-family="Inter, system-ui, sans-serif" font-size="25" fill="#111827">Cohort B</text><rect x="70" y="430" width="210" height="80" rx="14" fill="#FAFAF8" stroke="#1B3A6B" stroke-width="2.5"/><text x="175.0" y="477.0" text-anchor="middle" font-family="Inter, system-ui, sans-serif" font-size="25" fill="#111827">Cohort C</text><rect x="370" y="290" width="260" height="90" rx="14" fill="#FAFAF8" stroke="#D97706" stroke-width="2.5"/><text x="500.0" y="342.0" text-anchor="middle" font-family="Inter, system-ui, sans-serif" font-size="25" fill="#111827">Auto-reconcile</text><rect x="720" y="290" width="420" height="90" rx="14" fill="#FAFAF8" stroke="#1B3A6B" stroke-width="2.5"/><text x="930.0" y="342.0" text-anchor="middle" font-family="Inter, system-ui, sans-serif" font-size="25" fill="#111827">Weekly tracker - 98%</text></g>
</svg>