<svg xmlns="http://www.w3.org/2000/svg" viewBox="0 0 1200 760" role="img" aria-label="Cross-Functional Onboarding System">
  <rect width="1200" height="760" fill="#FAFAF8"/>
  <rect x="24" y="24" width="1152" height="712" rx="20" fill="none" stroke="#E5E7EB" stroke-width="2"/>
  <text x="60" y="90" font-family="Georgia, serif" font-size="40" fill="#1B3A6B">Cross-Functional Onboarding System</text>
  <line x1="60" y1="112" x2="200" y2="112" stroke="#D97706" stroke-width="4" stroke-linecap="round"/>
  <g><path d="M290 265 H360" fill="none" stroke="#3D6491" stroke-width="2.5" stroke-linecap="round"/><path d="M580 265 C620 265 620 185 650 185" fill="none" stroke="#3D6491" stroke-width="2.5" stroke-linecap="round"/><path d="M890 185 C930 185 930 265 960 265" fill="none" stroke="#3D6491" stroke-width="2.5" stroke-linecap="round"/><path d="M890 345 C930 345 930 265 960 265" fill="none" stroke="#3D6491" stroke-width="2.5" stroke-linecap="round"/><rect x="70" y="220" width="220" height="90" rx="14" fill="#FAFAF8" stroke="#1B3A6B" stroke-width="2.5"/><text x="180.0" y="272.0" text-anchor="middle" font-family="Inter, system-ui, sans-serif" font-size="25" fill="#111827">Intake form</text><rect x="360" y="220" width="220" height="90" rx="14" fill="#FAFAF8" stroke="#D97706" stroke-width="2.5"/><text x="470.0" y="272.0" text-anchor="middle" font-family="Inter, system-ui, sans-serif" font-size="25" fill="#111827">Filter</text><rect x="650" y="140" width="240" height="90" rx="14" fill="#FAFAF8" stroke="#1B3A6B" stroke-width="2.5"/><text x="770.0" y="192.0" text-anchor="middle" font-family="Inter, system-ui, sans-serif" font-size="25" fill="#111827">ClickUp tasks</text><rect x="650" y="300" width="240" height="90" rx="14" fill="#FAFAF8" stroke="#1B3A6B" stroke-width="2.5"/><text x="770.0" y="352.0" text-anchor="middle" font-family="Inter, system-ui, sans-serif" font-size="25" fill="#111827">IT provisioning</text><rect x="960" y="220" width="180" height="90" rx="14" fill="#FAFAF8" stroke="#D97706" stroke-width="2.5"/><text x="1050.0" y="272.0" text-anchor="middle" font-family="Inter, system-ui, sans-serif" font-size="25" fill="#111827">Escalation</text></g>
</svg>