<svg xmlns="http://www.w3.org/2000/svg" viewBox="0 0 820 300" role="img" aria-label="Support Operations Analytics process map">
  <rect width="820" height="300" rx="16" fill="#FAFAF8"/>
  <rect x="1" y="1" width="818" height="298" rx="15" fill="none" stroke="#E5E7EB"/>
  <rect x="1" y="1" width="818" height="44" rx="15" fill="#1B3A6B"/>
  <rect x="1" y="28" width="818" height="17" fill="#1B3A6B"/>
  <circle cx="26" cy="23" r="4.5" fill="#F59E0B"/>
  <text x="42" y="28" font-family="Inter,sans-serif" font-size="13" font-weight="600" fill="#FAFAF8">Support Operations Analytics</text>
  <text x="796" y="28" text-anchor="end" font-family="Inter,sans-serif" font-size="10.5" font-weight="700" letter-spacing="1.5" fill="#F59E0B">PROCESS MAP</text>
  <line x1="168" y1="179" x2="175" y2="179" stroke="#D97706" stroke-width="2.5"/><path d="M172 174 l7 5 l-7 5 z" fill="#D97706"/><rect x="30" y="133" width="132" height="92" rx="14" fill="#1B3A6B" stroke="#1B3A6B" stroke-width="1.5"/><circle cx="50" cy="153" r="12" fill="#D97706"/><text x="50" y="157" text-anchor="middle" font-family="Inter,sans-serif" font-size="11" font-weight="700" fill="#FAFAF8">1</text><text x="96" y="199" text-anchor="middle" font-family="Inter,sans-serif" font-size="12.5" font-weight="600" fill="#FAFAF8">Ticket data</text><line x1="325" y1="179" x2="332" y2="179" stroke="#D97706" stroke-width="2.5"/><path d="M329 174 l7 5 l-7 5 z" fill="#D97706"/><rect x="187" y="133" width="132" height="92" rx="14" fill="#ffffff" stroke="#E5E7EB" stroke-width="1.5"/><circle cx="207" cy="153" r="12" fill="#D97706"/><text x="207" y="157" text-anchor="middle" font-family="Inter,sans-serif" font-size="11" font-weight="700" fill="#FAFAF8">2</text><text x="253" y="191" text-anchor="middle" font-family="Inter,sans-serif" font-size="12.5" font-weight="600" fill="#111827">SQL audit (15</text><text x="253" y="207" text-anchor="middle" font-family="Inter,sans-serif" font-size="12.5" font-weight="600" fill="#111827">queries)</text><line x1="482" y1="179" x2="489" y2="179" stroke="#D97706" stroke-width="2.5"/><path d="M486 174 l7 5 l-7 5 z" fill="#D97706"/><rect x="344" y="133" width="132" height="92" rx="14" fill="#1B3A6B" stroke="#1B3A6B" stroke-width="1.5"/><circle cx="364" cy="153" r="12" fill="#D97706"/><text x="364" y="157" text-anchor="middle" font-family="Inter,sans-serif" font-size="11" font-weight="700" fill="#FAFAF8">3</text><text x="410" y="191" text-anchor="middle" font-family="Inter,sans-serif" font-size="12.5" font-weight="600" fill="#FAFAF8">Find</text><text x="410" y="207" text-anchor="middle" font-family="Inter,sans-serif" font-size="12.5" font-weight="600" fill="#FAFAF8">bottlenecks</text><line x1="639" y1="179" x2="646" y2="179" stroke="#D97706" stroke-width="2.5"/><path d="M643 174 l7 5 l-7 5 z" fill="#D97706"/><rect x="501" y="133" width="132" height="92" rx="14" fill="#ffffff" stroke="#E5E7EB" stroke-width="1.5"/><circle cx="521" cy="153" r="12" fill="#D97706"/><text x="521" y="157" text-anchor="middle" font-family="Inter,sans-serif" font-size="11" font-weight="700" fill="#FAFAF8">4</text><text x="567" y="191" text-anchor="middle" font-family="Inter,sans-serif" font-size="12.5" font-weight="600" fill="#111827">Power BI</text><text x="567" y="207" text-anchor="middle" font-family="Inter,sans-serif" font-size="12.5" font-weight="600" fill="#111827">dashboard</text><rect x="658" y="133" width="132" height="92" rx="14" fill="#1B3A6B" stroke="#1B3A6B" stroke-width="1.5"/><circle cx="678" cy="153" r="12" fill="#D97706"/><text x="678" y="157" text-anchor="middle" font-family="Inter,sans-serif" font-size="11" font-weight="700" fill="#FAFAF8">5</text><text x="724" y="199" text-anchor="middle" font-family="Inter,sans-serif" font-size="12.5" font-weight="600" fill="#FAFAF8">Recommendations</text>
</svg>
