<svg xmlns="http://www.w3.org/2000/svg" viewBox="0 0 125 48" role="img" aria-label="Power BI">
  <!-- Official Power BI brand mark (Simple Icons), set as a lockup with the tool name. -->
  <g transform="translate(8,9) scale(1.2500)">
    <path d="M10 12a1 1 0 0 1 1 1v11H4a1 1 0 0 1-1-1V13a1 1 0 0 1 1-1h6Zm-2-.5V7a1 1 0 0 1 1-1h6a1 1 0 0 1 1 1v17h-4.5V13a1.5 1.5 0 0 0-1.5-1.5H8Zm5-6V1a1 1 0 0 1 1-1h6a1 1 0 0 1 1 1v22a1 1 0 0 1-1 1h-3.5V7A1.5 1.5 0 0 0 15 5.5h-2Z" fill="#F2C811"/>
  </g>
  <text x="52" y="29.5" font-family="Inter, system-ui, -apple-system, 'Segoe UI', Roboto, sans-serif" font-size="15" font-weight="500" letter-spacing="0.2" fill="#111827">Power BI</text>
</svg>
